<?xml version="1.0" encoding="UTF-8"?>
<!-- Created with Inkscape (http://www.inkscape.org/) -->
<svg width="2126.8" height="2127.7" version="1.1" viewBox="0 0 2126.8 2127.7" xmlns="http://www.w3.org/2000/svg">
 <g transform="translate(-173.56 -618.06)" fill="none" stroke="#000">
  <path d="m1638.4 698.97c-0.2292-0.22847-5.8167-2.5295-12.417-5.1134-117.01-45.81-236.7-70.074-360.75-73.129l-26.75-0.6589 1.3319 4.4086c0.7325 2.4247 6.2096 20.271 12.171 39.659l10.839 35.25h188c103.4 0 187.81-0.18693 187.58-0.4154z"/>
  <path d="m1260.1 697.64c-4.1058-13.514-19.071-61.752-20.088-64.75-1.1951-3.523-1.3663 0.20383-1.4359 31.25l-0.079 35.25h11.067c10.076 0 11.02-0.15672 10.536-1.75z"/>
  <path d="m1235.5 664.22c0-19.342-0.1644-34.979-0.3652-34.75-0.2009 0.22917-4.9879 15.492-10.638 33.917-5.6499 18.425-10.484 34.062-10.742 34.75-0.3578 0.95313 2.1687 1.25 10.638 1.25h11.107z"/>
  <path d="m1211.5 698.89c0-0.53928 22.877-75.021 23.707-77.184 0.631-1.6445-18.415-1.7701-48.207-0.31777-109.54 5.34-212.09 25.967-315 63.36-11.789 4.2836-35.852 13.656-36.357 14.161-0.2619 0.26191 84.199 0.47621 187.69 0.47621 103.49 0 188.17-0.22321 188.17-0.49603z"/>
  <path d="m1936.9 956.23c12.702-6.6904 24.444-12.914 26.094-13.83s7.6513-4.0798 13.336-7.03l10.336-5.3642-7.4166-7.0555c-31.236-29.715-51.583-47.653-78.256-68.989-10.45-8.3591-20.8-16.516-23-18.127-2.2-1.6107-4.225-3.1726-4.5-3.4709-0.8866-0.96167-18.613-13.75-32.244-23.262-28.386-19.809-67.41-43.886-99.256-61.241-32.559-17.743-94.011-46.641-91.764-43.151 1.0347 1.6063 262.56 263.69 263.13 263.69 0.2474 0 10.842-5.474 23.544-12.164z"/>
  <path d="m693.23 835.89c72.894-72.875 132.22-132.5 131.83-132.5-0.3886 0-5.9448 2.2807-12.347 5.0682-54.141 23.572-113.09 55.817-163.25 89.291-55.38 36.962-100.02 73.05-153.75 124.29l-8.2513 7.8688 36.251 19.231c19.938 10.577 36.416 19.236 36.617 19.243 0.2011 0.01 60.006-59.614 132.9-132.49z"/>
  <path d="m551.43 977.91c4.1053-4.0845 7.2553-7.6147 7-7.8449-0.2552-0.2302-9.689-5.271-20.964-11.202s-25.871-13.639-32.435-17.129c-6.5643-3.4901-12.056-6.3456-12.204-6.3456s10.984 11.25 24.738 25 25.321 24.988 25.704 24.974c0.3834-0.014 4.0558-3.3682 8.161-7.4527z"/>
  <path d="m1980.9 935.64c-0.045-0.1365-8.8199 4.4014-19.5 10.084-10.68 5.6829-25.268 13.399-32.418 17.146s-13.201 6.9857-13.447 7.1961c-0.2459 0.2103 3.1291 3.953 7.5 8.3171l7.9471 7.9346 25-25.215c13.75-13.868 24.963-25.327 24.918-25.463z"/>
  <path d="m1964.2 973.39c8.2406-15.675 15.761-30.075 16.712-32 1.1468-2.3209-6.7212 4.9151-23.355 21.479l-25.084 24.979 7.7259 7.7316c4.2493 4.2524 8.0167 7.4117 8.3721 7.0207 0.3554-0.3909 7.3886-13.536 15.629-29.211z"/>
  <path d="m516.54 962.49c-22.004-21.912-29.007-28.503-25.342-23.852 0.5417 0.6875 8.5151 15.547 17.719 33.022l16.734 31.772 16.097-15.84z"/>
  <path d="m1385 984.64c13.666-15.262 26.931-30 29.479-32.75s9.718-10.625 15.934-17.5c6.2155-6.875 14.977-16.55 19.469-21.5s11.737-13.05 16.1-18c4.362-4.95 8.6564-9.675 9.543-10.5s9.6539-10.5 19.483-21.5 20.17-22.475 22.981-25.5 19.676-21.7 37.478-41.5 34.034-37.8 36.069-40c2.0358-2.2 13.809-15.25 26.162-29l22.461-25-188.04-0.25261c-103.42-0.13894-188.17-0.11962-188.33 0.0429-0.1626 0.16254 0.6157 3.2012 1.7295 6.7526s11.244 36.382 22.513 72.957 22.674 73.475 25.347 82c2.6725 8.525 9.8255 31.7 15.896 51.5 30.238 98.633 29.884 97.5 30.478 97.5 0.2211 0 11.583-12.487 25.248-27.75z"/>
  <path d="m1130 962.89c8.1226-26.4 18.494-60.15 23.048-75 8.7582-28.561 51.918-168.49 55.352-179.46 1.1119-3.5514 1.8887-6.5901 1.7261-6.7526-0.1625-0.16254-84.942-0.18186-188.4-0.0429l-188.1 0.25259 31.582 35c40.838 45.258 66.7 73.86 71.884 79.5 2.2751 2.475 12.82 14.175 23.433 26s23.204 25.775 27.981 31c4.7768 5.225 12.885 14.225 18.017 20 8.6337 9.7139 24.348 27.067 28.08 31.007 0.8781 0.9272 5.1354 5.6925 9.4608 10.589 4.3255 4.8968 8.1202 9.1284 8.4327 9.4034 0.3126 0.275 11.12 12.2 24.016 26.5s25.321 28.025 27.61 30.5c2.2893 2.475 5.3999 5.9897 6.9124 7.8103 1.5125 1.8207 3.0764 2.9457 3.4753 2.5 0.399-0.4456 7.3711-22.41 15.494-48.81z"/>
  <path d="m1631.8 1117.5c3.9177-2.1439 15.448-8.2727 25.623-13.62 26.69-14.025 35.646-18.754 62.5-33.001 28.815-15.287 55.851-29.559 71.5-37.744 6.325-3.3082 14.2-7.464 17.5-9.2351s21.75-11.562 41-21.757c48.617-25.748 56.723-30.069 59.007-31.452 1.8298-1.1079-8.9148-12.119-130.96-134.21-73.127-73.151-133.1-132.86-133.28-132.68-0.1787 0.17867-1.2083 17.598-2.2882 38.709-1.0798 21.111-2.8652 55.709-3.9674 76.884-1.1023 21.175-3.1248 60.775-4.4944 88s-3.1733 62.55-4.0082 78.5c-6.6337 126.73-7.0139 135.5-5.8748 135.5 0.3448 0 3.8323-1.7541 7.75-3.8979z"/>
  <path d="m850.91 1119.1c-0.2366-1.7875-1.1198-17.425-1.9627-34.75-0.8428-17.325-2.4184-48.6-3.5011-69.5-1.0828-20.9-3.323-64.775-4.9783-97.5-1.6554-32.725-4.1321-81.55-5.5039-108.5-1.3717-26.95-2.9373-58-3.479-69s-1.2636-23.778-1.6041-28.397l-0.6191-8.3966-266.66 266.65 2.6809 1.3888c1.4745 0.7639 7.6309 4.0093 13.681 7.2122 6.05 3.2028 26.525 14.022 45.5 24.044 18.975 10.021 38.1 20.142 42.5 22.49 4.4 2.3481 16.325 8.6436 26.5 13.99s21.65 11.418 25.5 13.492 11.725 6.2467 17.5 9.2729c21.138 11.076 45.628 24.04 50.5 26.733 2.75 1.5197 11.525 6.1684 19.5 10.33s21.25 11.174 29.5 15.582 15.084 8.0352 15.187 8.0607c0.103 0.026-0.01-1.416-0.2429-3.2035z"/>
  <path d="m1249.9 1134.4c3.4588-3.7112 41.755-46.128 69.467-76.942 9.1221-10.143 17.486-19.432 18.586-20.642s5.375-5.9035 9.5-10.43c11.589-12.718 11.428-8.3603 1.5018-40.486-27.575-89.249-69.852-226.43-78.126-253.5-1.933-6.325-4.3397-13.975-5.3482-17-1.0084-3.025-2.3446-7.4125-2.9692-9.75l-1.1356-4.25h-22.914l-0.2544 221.5c-0.1399 121.82-0.082 222.02 0.1275 222.65 0.21 0.6301 2.1643-0.8325 4.3427-3.2501 2.1785-2.4176 5.4287-5.9707 7.2227-7.8957z"/>
  <path d="m1235.5 923.89v-222.5h-11.5c-6.325 0-11.5 0.17812-11.5 0.39581 0 0.52663-44.15 143.96-70.979 230.6-16.199 52.311-25.032 81.489-25.027 82.667 0 0.6416 0.345 1.3166 0.7597 1.5 0.4148 0.1833 6.8264 7.0833 14.248 15.333 7.4215 8.25 13.748 15.225 14.058 15.5s15.119 16.7 32.907 36.5 34.639 38.475 37.447 41.5c2.8079 3.025 8.2202 8.9875 12.028 13.25s7.0654 7.75 7.2403 7.75c0.1748 0 0.3179-100.12 0.3179-222.5z"/>
  <path d="m1431 1210.3c3.0869-7.3952 8.0147-19.296 10.951-26.446s7.5825-18.4 10.326-25 7.6826-18.525 10.976-26.5c6.499-15.735 36.529-88.285 52.982-128 3.3039-7.975 14.849-35.875 25.657-62 10.807-26.125 21.155-51.1 22.995-55.5s4.9427-11.825 6.8953-16.5c1.9525-4.675 12.377-29.875 23.165-56s21.164-51.212 23.057-55.75c1.8935-4.5375 4.9888-11.962 6.8784-16.5 1.8897-4.5375 5.9518-14.275 9.0268-21.64 3.0751-7.3644 5.4665-13.5 5.3143-13.636-0.251-0.22294-6.5456 6.6539-24.631 26.909-3.4947 3.914-8.0229 8.9164-10.063 11.116-2.0396 2.2-10.189 11.2-18.109 20s-20.528 22.75-28.018 31-19.881 22-27.537 30.555-24.489 27.23-37.407 41.5-24.89 27.52-26.602 29.445c-4.371 4.9118-51.07 56.623-60.958 67.5-4.4997 4.95-11.944 13.275-16.543 18.5-4.5988 5.225-9.0843 10.175-9.9677 11-0.8835 0.825-5.5665 5.8922-10.407 11.26l-8.8004 9.7606 10.734 34.739c5.9036 19.107 20.192 65.34 31.753 102.74 11.56 37.4 21.247 68.805 21.526 69.79 0.2789 0.9843 0.6618 1.6349 0.8508 1.4459 0.1891-0.1891 2.8694-6.3944 5.9563-13.79z"/>
  <path d="m1054.3 1207.9c6.982-22.375 53.799-174.18 56.842-184.32l2.5051-8.3411-3.3578-3.5995c-1.8468-1.9796-3.8078-4.1268-4.3578-4.7715s-2.8141-3.1464-5.0312-5.5594c-7.0961-7.7229-41.26-45.599-64.392-71.388-12.333-13.749-24.934-27.699-28.002-30.999-7.0058-7.5344-17.559-19.196-42.08-46.5-10.62-11.825-23.217-25.775-27.994-31-4.7768-5.225-12.878-14.225-18.003-20s-13.891-15.45-19.482-21.5c-5.5903-6.05-13.72-15.05-18.067-20s-9.156-10.35-10.688-12c-1.5321-1.65-10.543-11.609-20.024-22.131-9.4808-10.522-17.352-19.033-17.491-18.913-0.249 0.21352 10.706 26.865 29.614 72.044 2.7621 6.6 14.336 34.5 25.72 62 18.784 45.376 23.394 56.527 33.897 82 1.8142 4.4 8.8078 21.275 15.541 37.5s14.932 36.025 18.22 44c3.2875 7.975 8.2183 19.9 10.957 26.5s6.4619 15.6 8.2728 20c5.7842 14.054 44.456 107.33 52.238 126 12.982 31.144 17.427 41.913 18.492 44.801 0.568 1.5406 1.1796 2.6542 1.3591 2.4748 0.1794-0.1795 2.5695-7.515 5.3111-16.301z"/>
  <path d="m1460 1208.4c2.75-1.5106 9.725-5.2286 15.5-8.2624 5.775-3.0337 25.575-13.488 44-23.232s38.225-20.21 44-23.257 12.75-6.7526 15.5-8.2344c2.75-1.4819 13.041-6.9259 22.869-12.098 11.517-6.0607 18.124-10.115 18.588-11.407 0.3957-1.1017 1.6969-21.803 2.8917-46.003 1.1947-24.2 5.521-109.7 9.6139-190 8.6474-169.66 8.9978-177.17 8.225-176.47-0.3199 0.29184-6.7043 15.367-14.188 33.5-7.4832 18.133-15.114 36.569-16.956 40.969-4.777 11.406-12.38 29.684-19.343 46.5-3.3021 7.975-9.8253 23.725-14.496 35-4.6706 11.275-12.189 29.5-16.708 40.5-4.5186 11-9.4675 22.925-10.998 26.5s-6.489 15.5-11.02 26.5c-4.5305 11-14.305 34.625-21.721 52.5-7.4159 17.875-14.968 36.1-16.782 40.5s-5.535 13.4-8.2686 20c-7.3843 17.828-30.92 74.804-34.699 84-3.3429 8.1348-14.712 35.466-23.603 56.742-2.6988 6.458-4.9069 11.98-4.9069 12.271 0 0.4857 20.648-10.01 32.5-16.52z"/>
  <path d="m1075 1216.3c12.06-4.9965 34.977-14.484 50.927-21.084 15.95-6.5995 32.6-13.51 37-15.357 28.87-12.116 68.815-28.475 69.53-28.475 3.1674 0 0-4.3649-16.137-22.266-10.034-11.129-19.924-22.034-21.976-24.234-5.0712-5.4354-12.569-13.751-19.042-21.118-6.4743-7.3692-50.742-56.247-56.022-61.855-2.0571-2.1854-3.9251-3.7604-4.151-3.5-0.363 0.4184-23.145 73.95-27.721 89.473-0.9728 3.3-3.8816 12.75-6.464 21-7.7824 24.862-29.517 95.6-29.517 96.066 0 0.9915 2.6369 0.024 23.573-8.65z"/>
  <path d="m1043.1 1216.2c-9.0482-21.446-34.304-82.275-48.712-117.32-3.1653-7.7-8.0918-19.625-10.948-26.5-2.856-6.875-6.6759-16.1-8.4887-20.5s-7.2172-17.45-12.01-29c-4.7925-11.55-10.645-25.725-13.005-31.5-3.7413-9.1547-11.332-27.459-23.016-55.5-13.455-32.292-13.147-31.549-33.963-82-8.7231-21.142-12.003-29.048-19.291-46.5-2.182-5.225-12.458-30.058-22.836-55.185s-18.912-45.602-18.964-45.5c-0.053 0.10178 1.1446 24.26 2.6611 53.685 1.5164 29.425 3.7029 71.95 4.8589 94.5s2.9783 58.1 4.0497 79c1.7177 33.509 3.2375 63.243 8.3455 163.27 0.7098 13.9 1.7076 25.68 2.2173 26.177 0.9382 0.915 23.255 12.831 76.427 40.808 4.675 2.4598 12.1 6.3895 16.5 8.7327 11.7 6.2311 38.066 20.19 53 28.06 7.15 3.7681 20.423 10.775 29.495 15.571 9.0723 4.7961 16.652 8.5638 16.843 8.3726s-1.2327-4.0934-3.1643-8.6715z"/>
  <path d="m1407.9 1177.2c-8.0625-26.024-18.164-58.791-22.448-72.816-15.074-49.35-26.316-85.505-26.738-85.992-0.5596-0.6441-4.0267 3.1054-45.303 48.992-28.582 31.775-32.837 36.48-42.018 46.469-29.138 31.701-33.787 37.531-29.929 37.531 0.5001 0 5.0861 1.767 10.191 3.9266 5.1049 2.1597 25.257 10.511 44.782 18.559s39.55 16.326 44.5 18.396 14.175 5.9132 20.5 8.5403c6.325 2.627 22.525 9.3552 36 14.952s24.64 9.8562 24.811 9.4662c0.1713-0.3899-6.2851-22.001-14.348-48.025z"/>
  <path d="m2208.9 1254.8c-20.378-46.241-41.675-86.473-71.861-135.75-15.04-24.554-37.339-56.266-65.537-93.204-16.268-21.31-44.275-53.241-75.254-85.799-7.3321-7.7056-8.3487-8.1388-9.8617-4.2014-0.3581 0.93175-8.0983 15.614-21.35 40.5-3.0753 5.775-7.6988 14.65-10.274 19.722l-4.683 9.222 132.45 132.46c72.845 72.854 132.56 132.35 132.7 132.21 0.1375-0.1375-2.7062-6.9582-6.3195-15.157z"/>
  <path d="m522.03 1001.6c-1.4091-2.971-26.83-51.403-33.438-63.704-3.1809-5.922-2.9598-5.9676-10.862 2.2407-54.921 57.048-93.954 106.38-137.49 173.76-7.7514 11.997-25.17 41.366-33.214 56-14.441 26.272-42.457 83.955-48.327 99.5-0.3115 0.825 59.206-58.258 132.26-131.3l132.83-132.8z"/>
  <path d="m1838.5 1293.4c11.275-0.5481 33.325-1.6613 49-2.4739 50.927-2.6399 166.34-8.5198 256-13.043 27.775-1.401 55.341-2.8631 61.258-3.2489l10.758-0.7016-266.71-266.69-16.303 30.847c-8.9666 16.966-17.971 33.997-20.01 37.847s-6.3048 11.95-9.4803 18c-3.1754 6.05-7.4609 14.15-9.5232 18-2.0624 3.85-7.9091 14.875-12.993 24.5-5.0836 9.625-11.154 21.1-13.489 25.5-2.3355 4.4-6.726 12.725-9.7567 18.5-9.4217 17.953-22.9 43.471-36.71 69.5-7.2949 13.75-15.734 29.673-18.752 35.385l-5.4888 10.385 10.851-0.6534c5.9681-0.3594 20.076-1.1019 31.351-1.6499z"/>
  <path d="m670.81 1282.6c-3.6696-7.0125-8.3988-15.828-10.509-19.59-2.1105-3.7618-3.8374-7.0101-3.8374-7.2186s-3.6468-7.2557-8.1039-15.66c-4.4572-8.4048-10.484-19.781-13.394-25.281s-11.133-21.025-18.274-34.5c-7.1415-13.475-15.352-29-18.246-34.5-2.8935-5.5-11.44-21.7-18.992-36-7.5521-14.3-18.115-34.325-23.474-44.5-5.3587-10.175-11.429-21.65-13.49-25.5s-6.7959-12.788-10.522-19.863l-6.7752-12.863-133.38 133.36c-73.358 73.35-132.81 133.46-132.11 133.58 0.6947 0.1197 14.988 0.9056 31.763 1.7463 28.983 1.4527 49.077 2.4741 187.5 9.5313 92.536 4.7178 157.75 8.0839 173 8.9291 7.7 0.4269 16.592 0.8435 19.759 0.9259l5.7593 0.1498z"/>
  <path d="m1921.1 979.52-8.3741-8.3741-6.1765 3.62c-3.397 1.9909-6.3632 3.6199-6.5915 3.6199-0.2282 0-7.2916 3.6468-15.696 8.1039-8.4048 4.4572-19.781 10.484-25.281 13.394-5.5 2.9094-21.25 11.254-35 18.543-13.75 7.2894-29.725 15.716-35.5 18.725s-13.2 6.933-16.5 8.7192c-3.3 1.7861-10.725 5.7338-16.5 8.7726-5.775 3.0387-30.075 15.881-54 28.539-66.885 35.386-70.219 37.145-74.569 39.357l-4.0689 2.069-1.2149 25.639c-0.6682 14.101-1.6418 33.289-2.1635 42.639-0.5218 9.35-1.8539 35.225-2.9603 57.5s-2.2183 43.404-2.471 46.952l-0.4594 6.4523 315.9-315.9z"/>
  <path d="m857.94 1258.9c-1.2534-24.2-3.312-64.312-4.5748-89.139l-2.2959-45.139-5.0521-2.5734c-2.7787-1.4153-9.1022-4.7487-14.052-7.4074-4.95-2.6588-14.625-7.7961-21.5-11.416s-15.875-8.3717-20-10.559c-4.125-2.1871-12.225-6.4653-18-9.5072s-25.575-13.517-44-23.278c-18.425-9.7611-37.775-19.997-43-22.746s-13.1-6.9113-17.5-9.2493c-4.4-2.3381-16.55-8.7575-27-14.265-10.45-5.5079-32.698-17.278-49.44-26.156l-30.44-16.141-7.8101 7.7643c-4.2956 4.2704-7.8102 8.0491-7.8102 8.397 0 0.7065 314.23 316.04 314.55 315.66 0.112-0.1339-0.8218-20.043-2.0752-44.243z"/>
  <path d="m1673 1301.9c90.709-4.6176 120.63-6.2526 120.93-6.6091 0.2788-0.3223 29.221-54.939 42.315-79.852 3.0352-5.775 6.98-13.2 8.7661-16.5 1.7862-3.3 5.7606-10.824 8.8321-16.72 5.8751-11.278 26.809-50.89 41.633-78.78 4.8236-9.075 11.131-21 14.016-26.5 2.8853-5.5 6.7034-12.7 8.4847-16 1.7814-3.3 6.4127-12.075 10.292-19.5s9.726-18.526 12.993-24.669l5.9398-11.169-16.227-16.143-157.49 157.49c-150.69 150.69-157.34 157.49-153.99 157.49 1.9243 0 25.999-1.142 53.499-2.542z"/>
  <path d="m1613.4 1266.8c4.932-93.34 7.1613-139.6 6.7478-140.01-0.2472-0.2472-6.249 2.6415-13.337 6.4193-7.0885 3.7778-18.288 9.7068-24.888 13.176s-34.95 18.438-63 33.266c-28.05 14.827-60 31.704-71 37.503-11 5.7993-20.13 10.644-20.289 10.766-0.1589 0.1221 10.866 4.8219 24.5 10.444 13.634 5.622 29.514 12.201 35.289 14.62 41.3 17.3 123.55 51.171 123.76 50.968 0.1451-0.1365 1.1413-16.854 2.2138-37.151z"/>
  <path d="m876.96 1298.4c5.5-2.2938 13.6-5.6538 18-7.4667s27.8-11.51 52-21.549 49.175-20.39 55.5-23.002c6.325-2.6118 18.25-7.5438 26.5-10.96s15.592-6.4498 16.316-6.7413c1.3449-0.5417-2.3752-2.7065-24.816-14.441-6.875-3.595-16.325-8.5695-21-11.054-4.675-2.4849-16.375-8.6839-26-13.776-9.625-5.0917-21.1-11.168-25.5-13.502-31.317-16.614-40.61-21.493-40.942-21.493-0.2084 0-3.4567-1.7287-7.2185-3.8416-3.7617-2.1129-13.59-7.351-21.84-11.64-8.25-4.2892-16.933-8.9152-19.295-10.28-2.3623-1.3646-4.5387-2.2376-4.8365-1.9399-0.2977 0.2978 0.1676 14.19 1.034 30.872 0.8665 16.682 2.6925 52.605 4.0579 79.83s2.7659 53.409 3.1123 58.187c0.6079 8.3846 0.7046 8.6569 2.7787 7.8275 1.1818-0.4726 6.6488-2.736 12.149-5.0298z"/>
  <path d="m857.38 1304c-0.2292-0.2364-71.036-71.138-157.35-157.56l-156.93-157.13-8.0486 8.0486-8.0486 8.0485 4.6871 9.2612c2.578 5.0937 7.4518 14.436 10.831 20.761 3.3789 6.325 14.702 27.7 25.164 47.5 10.461 19.8 20.936 39.6 23.277 44 2.3415 4.4 6.8461 12.95 10.01 19s7.6608 14.6 9.993 19 8.1761 15.425 12.986 24.5c4.8103 9.075 10.654 20.1 12.985 24.5s6.7531 12.725 9.8261 18.5 8.4258 15.911 11.895 22.525c3.4694 6.6136 9.6737 18.407 13.787 26.207l7.4794 14.182 5.0206 0.5115c2.7613 0.2813 10.196 0.7548 16.521 1.0523 22.174 1.0427 111.64 5.5916 126 6.4061 17.257 0.979 30.495 1.283 29.917 0.6869z"/>
  <path d="m1708 1458.2c9.35-17.706 19.393-36.716 22.318-42.244 2.9247-5.5279 8.0466-15.226 11.382-21.551 12.327-23.375 28.026-53.09 39.096-74l11.382-21.5-4.643-0.2955c-2.5536-0.1625-30.719 1.0562-62.589 2.7082s-69.307 3.5576-83.193 4.2346-25.695 1.5079-26.243 1.8465c-0.6001 0.3708 0.4174 3.9725 2.5599 9.0609 1.9558 4.6449 4.8348 11.612 6.3978 15.482 1.5631 3.8701 4.6438 11.295 6.8461 16.5 2.2022 5.2049 13.759 33.088 25.681 61.964s23.37 56.55 25.438 61.5 4.6172 11.136 5.6638 13.746c1.0466 2.6104 2.1279 4.7451 2.4029 4.7437 0.275 0 8.15-14.489 17.5-32.196z"/>
  <path d="m786.8 1483.6c1.4143-3.7125 5.0057-12.6 7.9809-19.75s14.71-35.5 26.077-63 21.745-52.475 23.062-55.5c1.3171-3.025 3.7493-8.875 5.4047-13s4.61-11.3 6.5658-15.945c2.2911-5.4413 3.1809-8.6772 2.5015-9.097-0.5799-0.3584-7.4392-0.9338-15.243-1.2786s-36.464-1.7715-63.689-3.1704c-27.225-1.399-60.412-3.0989-73.75-3.7776s-24.248-1.0084-24.246-0.7326c0 0.2758 0.8196 1.8515 1.8168 3.5015s4.8862 8.85 8.6423 16 8.5047 16.15 10.552 20c2.0477 3.85 6.3111 11.95 9.4744 18 3.1632 6.05 9.4669 17.975 14.008 26.5 7.9827 14.985 39.838 75.291 51.363 97.238 3.1016 5.906 5.9246 10.744 6.2733 10.75 0.3488 0.01 1.7913-3.0256 3.2056-6.7381z"/>
  <path d="m1724 1478.7c92.28-38.293 116.39-48.28 127.5-52.818 10.9-4.4517 34.831-14.368 53-21.961 24.464-10.224 36.373-15.164 70-29.037 19.525-8.055 39.1-16.147 43.5-17.982 24.442-10.195 35.969-14.983 76-31.57 24.2-10.027 50.3-20.815 58-23.974 7.7-3.1586 19.625-8.0896 26.5-10.958s17.081-7.0797 22.679-9.3592c5.5986-2.2794 10.084-4.2392 9.9685-4.3551-0.2108-0.2108-41.912 1.8421-115.15 5.6686-94.228 4.9234-293.83 15.017-296.96 15.017-4.0524 0-1.2123-4.7283-30.032 50-10.861 20.625-23.456 44.475-27.988 53-7.9238 14.904-22.894 43.203-32.269 61-2.4627 4.675-6.9013 13.047-9.8635 18.605-2.9622 5.5579-5.3858 10.401-5.3858 10.764 0 0.362 1.6875-0.052 3.75-0.9189 2.0625-0.8674 14.1-5.872 26.75-11.121z"/>
  <path d="m751.94 1436.2c-15.798-29.873-30.984-58.589-33.747-63.814-2.7628-5.225-7.5125-14.225-10.555-20-3.0424-5.775-7.9323-15-10.866-20.5s-8.1191-15.336-11.522-21.857c-3.4029-6.5215-6.6606-12-7.2394-12.175s-24.677-1.4872-53.552-2.9164c-28.875-1.4293-60.6-3.0274-70.5-3.5515-48.55-2.5702-93.504-4.8643-215-10.972-32.45-1.6313-62.825-3.2146-67.5-3.5185-8.0151-0.521-8.345-0.4649-5.7832 0.9837 1.4942 0.8448 7.1192 3.2788 12.5 5.4088 5.3808 2.1301 18.108 7.3471 28.283 11.594 40.259 16.802 55.719 23.22 85.5 35.495 17.05 7.0277 42.925 17.734 57.5 23.792s51.7 21.44 82.5 34.181c30.8 12.742 61.4 25.424 68 28.182 15.137 6.3269 19.71 8.2243 65.595 27.218 20.677 8.5592 47.002 19.46 58.5 24.223 11.498 4.7634 25.63 10.611 31.405 12.995s13.65 5.6457 17.5 7.2489c3.85 1.6033 7.1586 2.7761 7.3525 2.6062 0.1938-0.1698-12.573-24.75-28.371-54.623z"/>
  <path d="m1906.4 1555.1c3.5428-3.079 79.755-71.779 85.26-76.856 4.598-4.2405 10.002-9.1146 25.382-22.894 8.2875-7.425 22.014-19.787 30.502-27.472 8.4887-7.6843 22.409-20.241 30.934-27.904 8.525-7.6631 16.673-15.101 18.106-16.528 2.8638-2.8524 5.0665-4.8385 18.394-16.585 4.95-4.3628 9.225-8.1995 9.5-8.5261 0.275-0.3265 12.2-11.135 26.5-24.019s26.9-24.262 28-25.286 9.0875-8.193 17.75-15.933c8.6625-7.7397 15.75-14.208 15.75-14.374 0-0.1659-2.1375 0.6241-4.75 1.7558-6.3152 2.7354-53.863 22.501-67.75 28.164-6.05 2.4669-17.975 7.405-26.5 10.974-8.525 3.5684-20.675 8.6027-27 11.187-6.325 2.5845-16.675 6.8853-23 9.5573-13.633 5.7592-100.8 41.88-143.5 59.463-15.127 6.2294-108.01 44.71-116 48.06-4.4 1.8438-29.15 12.116-55 22.828-57.062 23.644-54.798 22.683-54.358 23.079 0.197 0.1774 5.5331 1.9046 11.858 3.8381 42.934 13.124 168.37 51.905 183.5 56.731 6.6 2.1056 12.154 3.8649 12.341 3.9095 0.1876 0.045 2.0239-1.3812 4.0807-3.1687z"/>
  <path d="m602.46 1548.6c34.938-10.741 84.842-26.139 97.5-30.084 4.95-1.5427 24.856-7.6928 44.237-13.667s34.905-11.172 34.5-11.552c-0.4051-0.3793-11.312-5.0379-24.237-10.352-12.925-5.3146-28.675-11.849-35-14.521-6.325-2.6719-16.675-6.9727-23-9.5572-6.325-2.5846-18.475-7.6189-27-11.187-8.525-3.5685-20.225-8.4179-26-10.776-12.514-5.1109-61.167-25.21-72.5-29.95-4.4-1.8405-13.4-5.5968-20-8.3475-17.925-7.4704-110.79-45.932-120-49.698-12.332-5.0445-62.977-26.008-93-38.496-14.85-6.1767-30.6-12.707-35-14.512s-15.159-6.2525-23.909-9.8839c-8.7497-3.6314-16.162-6.6025-16.473-6.6025-0.589 0-0.068 0.4865 14.455 13.495 4.9094 4.3974 9.1511 8.2267 9.4261 8.5094 0.8412 0.8648 30.356 27.587 51.5 46.627 29.65 26.7 62.845 56.64 64.113 57.827 3.401 3.1825 10.912 9.9355 18.393 16.537 4.6719 4.1225 9.1694 8.1796 9.9944 9.0157s10.5 9.5965 21.5 19.468c11 9.8711 22.475 20.273 25.5 23.114s8.014 7.3584 11.087 10.037 18.995 17.02 35.384 31.87c44.689 40.494 46.948 42.474 48.03 42.1 0.55-0.1898 14.275-4.4263 30.5-9.4143z"/>
  <path d="m2217.5 1466.8c0-109.72-0.3721-188.44-0.8897-188.25-0.4893 0.1833-5.0857 4.1583-10.214 8.8333s-11.366 10.3-13.86 12.5c-2.4947 2.2-4.7608 4.2323-5.0358 4.5161-0.275 0.2839-7.475 6.8089-16 14.5-8.525 7.6912-15.725 14.222-16 14.514s-14 12.664-30.5 27.495c-16.5 14.83-32.005 28.767-34.455 30.97s-7.8504 7.1232-12 10.934c-11.907 10.934-15.01 13.738-42.045 37.992-14.025 12.582-27.975 25.18-31 27.995s-14.5 13.187-25.5 23.048c-11 9.8613-22.25 20.046-25 22.632s-8.0024 7.3354-11.672 10.553c-11.351 9.9528-37.692 33.82-37.505 33.983 0.098 0.085 12.102 3.8344 26.677 8.3322 14.575 4.4979 50.575 15.618 80 24.712 29.425 9.0935 56.2 17.333 59.5 18.31s21.525 6.5987 40.5 12.492c18.975 5.8939 37.875 11.741 42 12.994 24.431 7.4197 60.082 18.462 62.75 19.435 0.1375 0.05 0.25-84.771 0.25-188.49z"/>
  <path d="m294.96 1643.4c18.15-5.6023 65.85-20.316 106-32.698 108.57-33.48 139.59-43.074 154.2-47.68l13.202-4.1624-19.702-17.725c-10.836-9.749-21.052-18.974-22.702-20.5s-5.2761-4.7996-8.0578-7.2746c-6.9106-6.1485-63.607-57.325-65.458-59.086-0.818-0.7779-8.2365-7.4782-16.486-14.89-8.2491-7.4114-15.223-13.738-15.498-14.058-0.275-0.3206-4.55-4.1391-9.5-8.4855-4.95-4.3465-9.225-8.1572-9.5-8.4683s-12.2-11.111-26.5-24-26.225-23.694-26.5-24.013-4.55-4.1481-9.5-8.5109c-13.406-11.816-15.541-13.742-18.394-16.597-1.4333-1.4343-11.801-10.884-23.04-21s-25.076-22.59-30.75-27.721l-10.316-9.3285v378.02l2.75-0.8173c1.5125-0.4494 17.6-5.4009 35.75-11.003z"/>
  <path d="m1244 1661.9c3.5473-8.3896 25.894-62.328 36.458-88 3.3949-8.25 7.6772-18.6 9.5163-23 6.282-15.03 13.315-31.991 20.525-49.5 15.584-37.846 22.292-54.034 33.562-81 7.5934-18.169 17.509-42.1 21.961-53 4.8182-11.797 24.823-60.235 29.943-72.5 1.8367-4.4 5.4014-12.95 7.9215-19s7.9494-19.08 12.065-28.955c4.1157-9.8752 7.3878-18.038 7.2712-18.14-0.1165-0.1019-17.312-7.2459-38.212-15.876s-43.291-17.896-49.757-20.592c-6.4665-2.6963-17.266-7.1915-24-9.9893-6.7334-2.7978-15.393-6.4068-19.243-8.0202-23.362-9.7894-52.935-21.927-53.425-21.927-0.3161 0-0.4329 117.56-0.2594 261.25 0.2093 173.39 0.6476 260.41 1.3034 258.75 0.5434-1.375 2.5102-6.1 4.3706-10.5z"/>
  <path d="m1235.5 1413.4c-0.01-143.18-0.1548-260.47-0.3239-260.64-0.169-0.169-8.829 3.236-19.244 7.5668-24.266 10.09-83.981 34.829-110.44 45.754-23.474 9.6929-35.067 14.508-46.663 19.381l-8.1632 3.4304 1.4816 3.5101c0.8149 1.9305 4.4262 10.71 8.0252 19.51s8.3401 20.275 10.536 25.5c7.8662 18.72 24.337 58.412 45.024 108.5 3.8616 9.35 9.1584 22.175 11.771 28.5s7.0923 17.125 9.9558 24 7.2354 17.45 9.7154 23.5 8.3353 20.225 13.012 31.5c4.6764 11.275 11.115 26.8 14.307 34.5 3.1926 7.7 9.0798 21.875 13.083 31.5 8.3271 20.022 10.682 25.717 31.916 77.204 8.525 20.67 15.618 37.475 15.761 37.345 0.1436-0.1304 0.2537-117.38 0.2446-260.56z"/>
  <path d="m1609.7 1306.2c-0.3975-0.3771-7.0228-3.2552-14.723-6.3959s-20.975-8.6255-29.5-12.189-32.15-13.356-52.5-21.762-48.025-19.869-61.5-25.473-24.872-10.268-25.327-10.365c-0.4546-0.096-8.4669 18.275-17.805 40.825-9.3382 22.55-18.487 44.6-20.33 49-1.8435 4.4-6.0488 14.525-9.3451 22.5-3.2962 7.975-12.617 30.475-20.712 50s-16.2 39.1-18.01 43.5c-10.963 26.647-52.663 127.43-57.927 140-6.6208 15.811-13.478 32.302-20.584 49.5-3.9768 9.625-10.14 24.475-13.695 33s-6.7022 16.175-6.9924 17 82.768-81.74 184.57-183.48c101.81-101.74 184.78-185.29 184.38-185.66z"/>
  <path d="m1222.9 1650.3c-9.8701-23.869-12.566-30.364-20.943-50.457-1.8345-4.4-12.159-29.375-22.944-55.5s-20.224-48.85-20.977-50.5-2.7869-6.6-4.5213-11c-1.7343-4.4-4.2184-10.475-5.5201-13.5-2.9655-6.8919-8.2693-19.652-28.057-67.5-16.119-38.978-21.54-52.083-30.192-73-12.076-29.194-38.242-92.33-39.634-95.63l-1.5307-3.6295-45.787 18.938c-25.183 10.416-49.387 20.443-53.787 22.283s-13.625 5.6821-20.5 8.5382-16.1 6.6977-20.5 8.5367c-6.7843 2.8357-14.496 6.0188-41.462 17.114l-3.4616 1.4243 184.92 184.92c101.71 101.71 185.03 184.81 185.17 184.67 0.1386-0.1387-4.485-11.708-10.275-25.709z"/>
  <path d="m1262.1 1670c9.9909-4.1646 23.041-9.5615 29-11.993 11.328-4.6221 28.782-11.868 75.835-31.481 6.6-2.7511 27.975-11.592 47.5-19.648 19.525-8.055 39.1-16.147 43.5-17.982 22.995-9.5917 35.738-14.884 76-31.566 24.2-10.027 50.525-20.919 58.5-24.205s19.9-8.2203 26.5-10.965 14.475-6.0072 17.5-7.2494c41.525-17.051 50.625-20.868 51.337-21.535 0.4605-0.431-2.8565-9.7217-7.3712-20.646-4.5147-10.924-9.679-23.463-11.476-27.863s-6.6926-16.212-10.879-26.25c-20.748-49.748-24.851-59.663-39.624-95.75-2.9271-7.15-5.5956-13.326-5.9299-13.726-0.3344-0.399-83.846 82.57-185.58 184.38s-184.52 184.87-183.97 184.58c0.55-0.2882 9.1743-3.9314 19.165-8.096z"/>
  <path d="m1047 1493.4c-101.74-101.74-185.25-184.65-185.59-184.25s-5.0298 11.526-10.421 24.726c-5.3911 13.2-11.492 28.05-13.557 33-39.608 94.922-52.109 125.74-51.287 126.45 0.4583 0.394 13.208 5.8151 28.333 12.047s33.35 13.77 40.5 16.751c21.089 8.794 35.259 14.678 47.5 19.724 6.325 2.6072 13.975 5.7985 17 7.0918 5.4061 2.3113 92.075 38.181 119.5 49.457 18.864 7.756 106.99 44.25 117 48.452 4.4 1.8466 15.875 6.6057 25.5 10.576s24.7 10.266 33.5 13.99c8.8 3.7247 16.224 6.8148 16.499 6.8669 0.2744 0.052-82.739-83.144-184.47-184.88z"/>
  <path d="m1794.4 1656.3c11.227-10.125 25.177-22.64 31-27.812 5.8227-5.1716 15.537-13.98 21.587-19.574s15.05-13.72 20-18.058c4.95-4.3378 9.225-8.1554 9.5-8.4837 0.275-0.3284 5.675-5.2583 12-10.956 10.798-9.7263 13.011-12.026 11.571-12.026-0.5291 0-68.776-20.97-148.07-45.497-24.326-7.5245-33.358-10.305-55.25-17.006-2.3375-0.7155-4.25-1.1944-4.25-1.0643 0 0.2828 15.031 36.712 32.005 77.568 6.7409 16.225 14.854 35.8 18.028 43.5 3.1746 7.7 7.6495 18.5 9.9442 24s6.6461 16.058 9.6697 23.462c3.0235 7.4044 5.7392 13.854 6.0347 14.332 0.2956 0.4782 1.7255-0.2209 3.1777-1.5535 1.4522-1.3327 11.826-10.707 23.054-20.832z"/>
  <path d="m720.92 1642.4c8.0616-19.525 16.168-39.1 18.014-43.5 1.8458-4.4 6.5974-15.875 10.559-25.5s12.775-30.918 19.585-47.317c6.8103-16.399 12.382-29.956 12.382-30.126 0-0.361-9.6522 2.5834-108 32.946-40.425 12.48-79.476 24.519-86.78 26.753-7.3042 2.2342-13.154 4.3706-13 4.7477 0.1542 0.377 12.205 11.417 26.78 24.533s26.725 24.1 27 24.408 7.25 6.5981 15.5 13.978 15.45 13.904 16 14.498c0.55 0.5937 3.025 2.8395 5.5 4.9908 2.475 2.1512 8.55 7.5894 13.5 12.085 22.648 20.568 27.042 24.333 27.651 23.691 0.3581-0.3779 7.247-16.662 15.309-36.187z"/>
  <path d="m2298 1660.6c-2.0395-63.023-6.3-107.94-15.084-159.03-9.9356-57.787-24.564-114.73-43.218-168.22-7.6526-21.945-18.623-50.641-19.848-51.917-0.22-0.2291-0.4 83.971-0.4 187.11v187.53l5.25 1.5205c5.3204 1.5409 31.38 9.5374 48.75 14.96 7.9675 2.487 23.647 7.3448 24.845 7.6972 0.1896 0.056 0.057-8.786-0.2944-19.648z"/>
  <path d="m2289.4 1680c-0.4257-0.4257-68.46-21.578-69.404-21.578-0.2791 0-0.5075 4.95-0.5075 11v11h35.167c19.342 0 34.977-0.19 34.744-0.4221z"/>
  <path d="m2217.5 1669v-11.422l-3.25-1.031c-2.7551-0.874-52.463-16.217-114.25-35.264-8.8-2.7128-23.425-7.2027-32.5-9.9775-14.742-4.5077-52.048-16.041-87-26.896-39.317-12.211-74.952-22.987-76.015-22.987-1.2657 0-4.9198 2.9544-13.485 10.903-2.75 2.5519-13.775 12.483-24.5 22.07-15.256 13.637-44.986 40.511-52.577 47.527-0.595 0.55-9.1142 8.2-18.931 17-9.8172 8.8-19.219 17.238-20.893 18.75l-3.0438 2.75h446.45z"/>
  <path d="m1764.5 1675.6c-1.0576-2.6125-5.1167-12.4-9.0202-21.75s-9.519-22.85-12.479-30-10.323-24.925-16.362-39.5-14.228-34.375-18.197-44c-3.9695-9.625-8.4586-20.425-9.9758-24s-4.0536-9.7518-5.6365-13.726c-3.3475-8.4054-1.2521-8.3491-19.878-0.5335-7.15 3.0002-16.6 6.9603-21 8.8002-11.462 4.7929-60.099 24.884-72.5 29.949-5.775 2.3585-17.475 7.2079-26 10.776-8.525 3.5684-20.675 8.6027-27 11.187-6.325 2.5845-16.675 6.8833-23 9.5527-12.334 5.2055-58.741 24.43-76 31.484-10.583 4.3252-40.691 16.824-55.5 23.04-10.638 4.4654-125.58 52.014-127.5 52.742-0.825 0.3135 116.28 0.6054 260.24 0.6489l261.74 0.079z"/>
  <path d="m1228.5 1679.3c-1.375-0.5445-6.1-2.5134-10.5-4.3753-4.4-1.862-23.975-9.9623-43.5-18.001s-39.1-16.125-43.5-17.971c-12.454-5.2239-56.941-23.673-102.5-42.508-22.825-9.4363-45.1-18.662-49.5-20.502-4.4-1.8398-33.2-13.762-64-26.494s-59.6-24.66-64-26.507c-31.526-13.234-66.729-27.617-66.934-27.348-0.1353 0.1775-2.1706 5.0477-4.5231 10.823-2.3524 5.775-6.4208 15.675-9.0409 22-7.0817 17.096-30.714 74.305-34.492 83.5-1.8081 4.4-6.6653 16.1-10.794 26s-9.7777 23.512-12.554 30.25l-5.0477 12.25 261.69-0.063c173.78-0.042 260.85-0.3959 259.19-1.0534z"/>
  <path d="m700.88 1678.6c-5.6985-5.1004-32.994-29.792-33.422-30.234-0.275-0.2838-4.325-3.8911-9-8.0161s-8.725-7.7508-9-8.0573c-0.499-0.5561-40.732-36.941-65.45-59.189-7.1776-6.4606-13.655-11.748-14.393-11.75-1.3348 0-21.141 6.0211-110.16 33.507-46.276 14.289-93.333 28.797-161 49.636-19.525 6.0133-36.962 11.4-38.75 11.971l-3.25 1.0374v22.845h223.19c212.64 0 223.1-0.083 221.23-1.75z"/>
  <path d="m254.46 1669.3c0-10.064-0.1587-11.022-1.75-10.568-2.6599 0.7585-67.605 20.709-68.75 21.119-0.55 0.1971 15.088 0.3939 34.75 0.4374l35.75 0.079z"/>
  <path d="m222.21 1665.9 32.25-9.9087v-187.45c0-103.1-0.18-187.26-0.4-187.03-1.5699 1.6351-15.572 39.108-23.915 64.004-27.257 81.331-44.183 165.03-51.145 252.91-1.254 15.831-3.4566 64.999-3.5243 78.673l-0.016 3.1726 7.25-2.23c3.9875-1.2265 21.762-6.6889 39.5-12.139z"/>
  <path d="m2243 1697.9c33.724-10.332 48.028-14.81 48.417-15.155 0.2291-0.2038-15.858-0.3705-35.75-0.3705h-36.167v22.804l4.75-1.4947c2.6125-0.8221 11.05-3.4249 18.75-5.784z"/>
  <path d="m254.15 1682.7c-0.2091-0.209-16.424-0.2618-36.034-0.1173l-35.654 0.2628 71.5 22.129 0.284-10.947c0.1562-6.021 0.1129-11.118-0.096-11.327z"/>
  <path d="m1947.5 1789c22.275-6.8375 56.025-17.244 75-23.125 18.975-5.8815 40.125-12.396 47-14.477s36.575-11.234 66-20.339 59.904-18.494 67.732-20.864l14.232-4.3084 0.036-23.5h-223c-122.65 0-223 0.1599-223 0.3554s8.3538 7.9064 18.564 17.135c10.21 9.229 19.098 17.292 19.75 17.919 0.6524 0.6264 5.2361 4.7152 10.186 9.0861 13.613 12.02 15.566 13.784 18.394 16.6 1.4333 1.4276 9.581 8.8694 18.106 16.537s22.614 20.359 31.309 28.203c10.927 9.8574 16.331 14.099 17.5 13.735 0.9299-0.2893 19.916-6.1203 42.191-12.958z"/>
  <path d="m602.22 1773.7c38.913-35.122 61.583-55.647 62.245-56.358 0.275-0.2948 8.9375-8.1114 19.25-17.37 10.312-9.2589 18.75-17.011 18.75-17.227 0-0.2158-100.36-0.3924-223.03-0.3924h-223.03l0.2818 11.692 0.2817 11.692 13.5 4.2079c7.425 2.3144 19.575 6.0792 27 8.3663 7.425 2.2872 31.5 9.7207 53.5 16.519 47.468 14.668 180.91 55.842 198 61.094 6.6 2.0281 13.8 4.2741 16 4.9912 2.2 0.717 4.3396 1.3338 4.7546 1.3706 0.415 0.037 15.04-12.827 32.5-28.586z"/>
  <path d="m1740.7 1852.8c26.002-8.0059 53.576-16.54 61.276-18.965s25.7-7.9819 40-12.349c50.496-15.421 57.008-17.463 57.774-18.117 0.4257-0.3634-5.4243-6.2505-13-13.083-7.5758-6.832-14.267-12.874-14.87-13.426-7.533-6.9025-34.372-31.182-55.904-50.573-14.85-13.373-31.32-28.279-36.6-33.123s-10.005-8.7958-10.5-8.7809c-0.495 0.015-10.767 23.977-22.827 53.25-19.767 47.98-24.865 60.294-36.109 87.223-1.8372 4.4-6.3283 15.2-9.9802 24s-6.8779 16.562-7.169 17.25c-0.291 0.6875-0.2678 1.25 0.052 1.25 0.3194 0 21.855-6.5503 47.857-14.556z"/>
  <path d="m1691.5 1864.1c2.5336-6.4112 30.193-73.487 34.948-84.75 2.67-6.325 8.0006-19.15 11.846-28.5 5.491-13.352 25.197-60.93 27.853-67.25 0.4196-0.9982-52.321-1.2424-261.83-1.2121l-262.36 0.038 17 7.0184c9.35 3.8602 20.6 8.5247 25 10.366s13.625 5.6841 20.5 8.5402 16.1 6.6946 20.5 8.5299 23.975 9.9275 43.5 17.982c19.525 8.0551 40.9 16.896 47.5 19.648 46.152 19.237 64.418 26.822 75.5 31.349 20.283 8.2865 64.558 26.589 70 28.937 3.025 1.3051 13.15 5.531 22.5 9.3909s36.575 15.14 60.5 25.068 44.008 18.06 44.629 18.072c0.6208 0.012 1.7066-1.4403 2.413-3.2278z"/>
  <path d="m794.2 1863.8c4.8189-1.9728 12.362-5.0896 16.762-6.9263 4.4-1.8368 23.975-9.9276 43.5-17.98 19.525-8.0521 39.1-16.142 43.5-17.977s13.625-5.6738 20.5-8.5299 16.1-6.6937 20.5-8.528c7.3418-3.0606 70.948-29.387 105.5-43.665 7.975-3.2958 18.1-7.4957 22.5-9.3333 9.7138-4.0567 97.295-40.359 117.5-48.703 7.975-3.2936 19.9-8.2389 26.5-10.99s14.025-5.8304 16.5-6.8441c4.3892-1.7977-1.962-1.8442-257.86-1.8898-209.5-0.037-262.26 0.205-261.85 1.2032 0.2785 0.6875 3.4155 8.225 6.9711 16.75s9.7185 23.375 13.695 33c7.2154 17.463 14.244 34.365 20.586 49.5 3.8772 9.2531 20.965 50.655 29.201 70.75 3.0994 7.5625 5.9942 13.75 6.433 13.75 0.4387 0 4.7405-1.6141 9.5594-3.5868z"/>
  <path d="m781.16 1866.1c-4.5579-11.083-14.139-33.969-15.175-36.25-0.7499-1.65-2.7826-6.6-4.517-11-1.7343-4.4-4.2285-10.475-5.5424-13.5-2.4462-5.6315-25.081-60.351-41.044-99.225-4.9066-11.948-9.3711-21.727-9.9211-21.73-0.55 0-3.2758 2.1229-6.0573 4.7246-2.7815 2.6018-7.2815 6.7225-10 9.1571s-9.4427 8.5532-14.943 13.597c-5.5 5.0436-14.725 13.361-20.5 18.483s-15.45 13.887-21.5 19.477c-6.05 5.5903-15.05 13.713-20 18.051-4.95 4.3378-9.225 8.1435-9.5 8.4572s-6.9125 6.35-14.75 13.414-14.25 12.993-14.25 13.176c0 0.4239 45.883 14.907 78.5 24.78 21.164 6.4058 77.351 23.793 106.5 32.956 22.296 7.0092 23.463 7.2886 22.7 5.432z"/>
  <path d="m1618.3 2040.4c5.0165-12.138 13.363-32.219 17.665-42.5 1.8413-4.4 7.2484-17.45 12.016-29s14.071-34.05 20.675-50c18.846-45.518 19.768-47.785 19.768-48.598 0-0.422-1.0125-1.0867-2.25-1.4772s-7.875-3.0755-14.75-5.9666c-6.875-2.891-37.7-15.683-68.5-28.427s-61.4-25.426-68-28.182c-16.24-6.7814-21.27-8.8638-72-29.812-24.2-9.9929-47.6-19.676-52-21.517-18.327-7.6706-45.717-19.032-55.835-23.16-5.9591-2.4315-18.858-7.7683-28.665-11.86s-22.706-9.4298-28.665-11.863c-5.9591-2.4337-20.667-8.5225-32.683-13.531-12.017-5.0083-22.141-9.1059-22.499-9.1059-0.3578 0 82.599 83.253 184.35 185.01 184.97 184.97 185 185.01 186.22 182.25 0.6736-1.5163 2.9914-7.0318 5.1508-12.257z"/>
  <path d="m1231.1 1685.7c-0.154-0.1541-4.6171 1.4913-9.9178 3.6564-14.267 5.8274-105.07 43.477-129.22 53.579-11.201 4.6853-59.865 24.79-72.5 29.952-9.4424 3.8577-21.343 8.798-59.5 24.701-6.6 2.7507-15.6 6.4981-20 8.3275-14.585 6.0641-65.86 27.273-74.5 30.816-4.675 1.917-13.9 5.7302-20.5 8.4738s-17.4 7.2325-24 9.9753-17.175 7.1048-23.5 9.6934-11.67 4.8728-11.878 5.076c-0.3282 0.3204 10.469 27.205 17.449 43.446 1.3 3.025 11.662 28 23.027 55.5s23.098 55.85 26.074 63 6.346 15.42 7.4894 18.379l2.079 5.3789 184.84-184.84c101.66-101.66 184.71-184.96 184.56-185.12z"/>
  <path d="m1790.8 2062.1c-1.8887-3.6811-18.19-34.64-25.405-48.25-24.895-46.958-44.292-83.673-56.528-107-15.626-29.789-17.376-32.975-18.278-33.276-0.5197-0.1733-1.4083 0.943-1.9747 2.4805-1.18 3.203-10.012 24.654-19.473 47.295-3.5623 8.525-11.31 27.2-17.217 41.5-5.9071 14.3-16.784 40.566-24.171 58.369s-13.297 32.499-13.134 32.656c0.2971 0.2869 25.436 1.6688 99.797 5.4861 21.725 1.1153 46.025 2.4032 54 2.862 7.975 0.4589 16.649 0.9 19.276 0.9802l4.7757 0.1458z"/>
  <path d="m720.87 2063.4c20.951-1.0903 60.577-3.1375 88.058-4.5494 27.481-1.4118 50.128-2.729 50.326-2.927 0.1981-0.198-1.8864-5.6883-4.6321-12.201-5.0136-11.892-13.8-33.075-20.672-49.841-3.8654-9.4301-11.84-28.713-20.265-49-9.7126-23.388-15.01-36.211-22.204-53.75-4.0045-9.7625-7.6146-17.75-8.0225-17.75-0.4078 0-4.6969 7.5375-9.5312 16.75s-10.003 19-11.486 21.75-5.5291 10.4-8.9918 17c-6.2533 11.919-9.5689 18.196-18.224 34.5-2.4816 4.675-8.6779 16.375-13.77 26-5.0917 9.625-11.168 21.1-13.502 25.5-17.086 32.206-21.493 40.623-21.493 41.051 0 0.2686-1.125 2.2705-2.5 4.4486-2.616 4.1441-2.9314 5-1.8424 5 0.3617 0 17.799-0.8921 38.75-1.9823z"/>
  <path d="m2232.4 2049.9c34.315-92.007 55.085-187.7 63.007-290.3 1.3297-17.22 3.4024-75.18 2.7132-75.869-0.4497-0.4498-37.305 10.606-69.412 20.822l-9.25 2.9432 0.084 375.4 2.5125-6c1.3819-3.3 6.037-15.45 10.345-27z"/>
  <path d="m254.46 1895v-187.42l-9.25-3.0301c-20.585-6.7435-68.97-21.248-69.411-20.808-0.7753 0.7752 1.5622 59.903 3.1935 80.78 7.8171 100.05 29.408 197.81 63.691 288.39 10.959 28.957 11.171 29.5 11.491 29.5 0.1564 0 0.2843-84.338 0.2843-187.42z"/>
  <path d="m2212.4 2084c-2.0681-1.6883-22.629-20.038-26.933-24.036-7.086-6.5826-14.388-13.224-24.996-22.734-4.6683-4.1851-13.663-12.249-19.988-17.92-15.293-13.712-29.009-26.129-36.982-33.48-3.5847-3.305-17.318-15.667-30.518-27.472s-26.25-23.545-29-26.09-10.625-9.7128-17.5-15.928-16.55-14.977-21.5-19.469-13.05-11.737-18-16.1c-4.95-4.362-9.675-8.6564-10.5-9.543s-10.5-9.6539-21.5-19.483-22.475-20.17-25.5-22.979c-22.063-20.492-26.009-23.64-28.785-22.968-2.7563 0.6669-89.719 27.412-156.21 48.044-20.075 6.2287-39.2 12.089-42.5 13.022-3.3 0.9335-6.3426 2.0126-6.7613 2.3979s1.8313 1.7471 5 3.0263c3.1687 1.2791 8.6863 3.5629 12.261 5.0752 3.575 1.5122 14.15 5.9022 23.5 9.7555 20.295 8.3638 96.657 39.964 108 44.693 4.4 1.8343 13.625 5.6719 20.5 8.528s16.1 6.6946 20.5 8.5299 23.975 9.9159 43.5 17.957c19.525 8.041 37.975 15.68 41 16.976s13.375 5.6081 23 9.5826 24.475 10.14 33 13.702 20.225 8.405 26 10.764c11.797 4.8182 60.235 24.823 72.5 29.943 4.4 1.8367 12.95 5.4083 19 7.9369 67.707 28.298 71.19 29.716 69.417 28.269z"/>
  <path d="m296.97 2069.9c18.146-7.512 36.592-15.16 40.992-16.994s13.625-5.6729 20.5-8.529 16.1-6.6937 20.5-8.528c4.4-1.8342 26.675-11.061 49.5-20.504s47.8-19.783 55.5-22.978c16.457-6.8288 23.934-9.9158 35.5-14.656 14.476-5.9333 118.51-49.094 139.5-57.872 11.333-4.7404 59.986-24.839 72.5-29.95 18.612-7.6011 42.416-17.501 45.5-18.923 2.1631-0.9974 2.5816-1.5386 1.5-1.9402-1.5968-0.5928-20.729-6.5027-117-36.14-33.275-10.244-66.838-20.624-74.584-23.066-7.7459-2.4423-14.662-4.4406-15.369-4.4406-0.9506 0-16.482 13.388-22.047 19.005-0.275 0.2776-4.55 4.1026-9.5 8.5-4.95 4.3975-9.225 8.2335-9.5 8.5246-0.8223 0.8702-51.13 46.356-68.542 61.971-31.676 28.408-81.94 73.88-87.656 79.297-1.0429 0.9884-5.5875 4.9993-10.099 8.9131s-8.6529 7.614-9.2029 8.2227-12.7 11.647-27 24.53-26.225 23.691-26.5 24.019-4.55 4.1564-9.5 8.5074c-14.529 12.771-30.966 28.192-28.992 27.199 0.5542-0.2787 15.854-6.6529 34-14.165z"/>
  <path d="m2217.1 1708.6c-0.3623-0.3622-23.463 6.6184-88.589 26.77-14.278 4.4182-118.38 36.531-182.5 56.297-11.55 3.5605-25.162 7.714-30.25 9.23-5.0875 1.5161-9.25 3.0729-9.25 3.4596s5.9625 6.0297 13.25 12.54c7.2875 6.5102 13.981 12.537 14.875 13.392 2.7581 2.6394 45.89 41.67 54.875 49.658 4.5332 4.0298 56.793 51.226 68.5 61.862 4.95 4.4975 13.05 11.74 18 16.095s9.675 8.6631 10.5 9.574 10.95 10.126 22.5 20.478c37.406 33.526 79.552 71.574 99.961 90.242l8.0393 7.3535 0.2526-188.27c0.1389-103.55 0.065-188.45-0.1638-188.68z"/>
  <path d="m272.93 2071c4.9304-4.4569 11.005-9.9034 13.5-12.103 2.4947-2.2 4.7608-4.2586 5.0358-4.5746 0.4557-0.5237 5.445-5.0279 32.498-29.339 4.9492-4.4475 11.699-10.587 15-13.644 3.3008-3.0569 17.252-15.631 31.002-27.942s27.714-24.885 31.031-27.942c9.9498-9.1696 14.833-13.583 41.469-37.479 14.025-12.582 27.975-25.191 31-28.018s14.5-13.174 25.5-22.992c11-9.8181 20.681-18.575 21.514-19.46 0.8329-0.8847 5.3306-4.9835 9.9951-9.1085 4.6644-4.125 9.0693-8.0542 9.7887-8.7316 0.7195-0.6774 7.1342-6.4789 14.255-12.892 7.1209-6.4133 12.947-11.992 12.947-12.397 0-0.4049-1.6875-1.1847-3.75-1.7328-4.1635-1.1065-13.58-3.9931-54.75-16.784-15.4-4.7846-34.3-10.618-42-12.963-7.7-2.3451-47.075-14.483-87.5-26.973-94.253-29.121-121.67-37.526-122.41-37.526-0.3268 0-0.5942 84.872-0.5942 188.6v188.6l3.75-3.2502c2.0625-1.7876 7.7839-6.8967 12.714-11.354z"/>
  <path d="m2208.5 2085.3c-2.8874-1.1522-97.711-40.422-109.52-45.357-4.4-1.8384-14.525-6.039-22.5-9.3348-34.552-14.279-98.158-40.605-105.5-43.665-4.4-1.8343-13.625-5.6719-20.5-8.528s-16.1-6.6946-20.5-8.5299-23.975-9.9251-43.5-17.977c-34.853-14.374-39.327-16.227-63.5-26.301-38.157-15.903-50.058-20.843-59.5-24.701-24.025-9.8153-64.72-26.624-67.62-27.93l-3.1202-1.4049 5.5085 10.672c3.0296 5.8696 6.7963 12.816 8.3702 15.437 1.574 2.6208 2.8618 4.9592 2.8618 5.1965s8.1556 15.868 18.124 34.735 22.394 42.404 27.613 52.304 11.182 21.15 13.25 25 8.5998 16.225 14.515 27.5 11.26 21.043 11.877 21.706c1.4197 1.5262 5.504 1.8263 65.622 4.8211 90.592 4.5129 178.08 8.9982 281 14.407 60.009 3.1534 70.825 3.4684 67.024 1.9519z"/>
  <path d="m348.46 2082.4c42.625-2.1909 86.725-4.4452 98-5.0097s33.775-1.6905 50-2.5022c16.225-0.8118 33.325-1.7085 38-1.9927 4.675-0.2843 22-1.1935 38.5-2.0206 73.119-3.665 105.76-5.4176 105.98-5.6895 0.1275-0.161 3.0592-5.6927 6.5148-12.293 8.4548-16.148 14.379-27.391 19.497-37 2.3432-4.4 8.4197-15.875 13.503-25.5 5.0835-9.625 10.928-20.65 12.987-24.5s8.8126-16.675 15.008-28.5c12.861-24.55 26.643-50.532 31.765-59.886 1.9233-3.5125 3.1031-6.153 2.6217-5.8676-0.7719 0.4575-29.952 12.6-74.375 30.95-7.975 3.2942-18.1 7.4936-22.5 9.3319s-33.2 13.767-64 26.509c-53.967 22.326-70.856 29.331-88 36.502-11.201 4.6853-59.865 24.79-72.5 29.952-9.4424 3.8577-21.343 8.798-59.5 24.701-24.173 10.074-28.647 11.928-63.5 26.301-54.796 22.598-71.283 29.5-71.917 30.108-0.7378 0.7073 5.159 0.4548 83.917-3.5932z"/>
  <path d="m1455 2121.4c14.85-6.1708 36-14.952 47-19.515s28.325-11.767 38.5-16.01 22.1-9.1907 26.5-10.995c21.041-8.6277 43.021-17.732 43.209-17.898 0.1149-0.1013-83.033-83.415-184.77-185.14l-184.98-184.96 4.1152 10c2.2633 5.5 5.596 13.6 7.406 18 5.4551 13.261 44.455 107.41 48.054 116 1.8424 4.4 13.772 33.2 26.511 64s26.541 64.1 30.671 74c4.1305 9.9 8.9894 21.6 10.798 26 4.762 11.588 28.868 69.927 34.71 84 2.7395 6.6 5.9975 14.475 7.2399 17.5 16.258 39.584 15.226 37.338 16.867 36.696 0.6453-0.2527 13.323-5.5082 28.173-11.679z"/>
  <path d="m1054.5 2119.4c8.6535-20.982 11.553-27.992 16.955-40.998 2.856-6.875 7.7825-18.8 10.948-26.5 8.0353-19.547 34.132-82.549 40.179-97 9.2517-22.11 11.611-27.794 30.918-74.5 10.572-25.575 21.409-51.788 24.082-58.25s7.0453-17.038 9.7169-23.5c30.511-73.803 36.742-88.859 39.628-95.75 1.8427-4.4 4.0777-9.8 4.9666-12 1.2649-3.1304-38.598 36.207-183.37 180.95-184.39 184.35-184.97 184.95-182.28 186.2 2.4822 1.1485 46.809 19.536 82.698 34.304 8.25 3.3949 18.6 7.6772 23 9.5163 32.023 13.385 63.724 26.5 71 29.376 2.75 1.0866 5.3158 1.6791 5.7018 1.3166 0.386-0.3624 3.0213-6.2832 5.8564-13.157z"/>
  <path d="m1249.7 2206.4c5.1049-2.1682 30.657-12.769 56.782-23.557 46.67-19.272 52.428-21.66 74.5-30.897 6.05-2.5319 17.975-7.4769 26.5-10.989 10.484-4.319 15.393-6.8268 15.17-7.7498-0.1816-0.7505-7.9833-19.815-17.337-42.365s-20.156-48.65-24.005-58c-3.8491-9.35-8.5087-20.6-10.355-25s-13.776-33.2-26.51-64c-21.621-52.294-28.118-67.956-36.502-88-4.7404-11.333-24.839-59.986-29.95-72.5-4.4972-11.012-14.52-35.198-21.963-53-2.4145-5.775-6.9146-16.575-10-24s-6.0157-14.4-6.5112-15.5c-0.5376-1.1934-0.9282 103.16-0.9686 258.75-0.043 167.52 0.2785 260.75 0.9006 260.75 0.5326 0 5.1451-1.774 10.25-3.9422z"/>
  <path d="m1235.5 1949.7c0-143.37-0.1728-260.48-0.384-260.25-0.2112 0.2292-3.1631 7.1667-6.5598 15.417-3.3966 8.25-7.682 18.6-9.5231 23s-6.0443 14.525-9.3406 22.5c-3.2962 7.975-12.617 30.475-20.712 50s-16.2 39.1-18.01 43.5c-1.8103 4.4-5.5259 13.4-8.257 20-21.479 51.907-31.911 77.149-34.714 84-1.8005 4.4-6.2908 15.2-9.9784 24s-8.175 19.6-9.9721 24-11.481 27.8-21.52 52-19.734 47.6-21.545 52-5.7652 13.964-8.7879 21.253c-3.0226 7.2889-5.1897 13.442-4.8158 13.673s4.2666 1.8266 8.6503 3.5455c4.3838 1.7189 9.3205 3.7318 10.97 4.4731 2.7248 1.2242 20.281 8.5375 41 17.079 4.4 1.8139 13.4 5.5317 20 8.2616s29.1 12.009 50 20.621c20.9 8.6116 40.925 16.97 44.5 18.573s7.0625 2.9393 7.75 2.9684c0.9969 0.042 1.25-52.719 1.25-260.61z"/>
  <path d="m1620.1 2225.6c-0.3506-6.4625-1.5559-29.75-2.6784-51.75-4.3634-85.515-5.9294-113.8-6.3229-114.19-0.3736-0.3735-15.52 5.6911-47.145 18.876-6.6 2.7517-15.6 6.4689-20 8.2604-4.4 1.7914-21.275 8.7823-37.5 15.535-36.911 15.362-55.603 23.098-68.888 28.506l-10.388 4.2294 11.888 6.2816c6.5382 3.4548 16.163 8.5309 21.388 11.28s12.2 6.4569 15.5 8.2396 11.175 5.9412 17.5 9.2412 29.725 15.66 52 27.467c22.275 11.806 46.8 24.762 54.5 28.79s15.35 8.1449 17 9.149 3.1762 1.8273 3.3917 1.8294c0.2154 0 0.1048-5.2838-0.2458-11.746z"/>
  <path d="m893.46 2216.2c6.325-3.3347 22.075-11.671 35-18.526 12.925-6.8543 28-14.834 33.5-17.734s25.3-13.358 44-23.241c18.7-9.8836 35.526-18.755 37.391-19.715l3.391-1.7451-45.891-18.954c-25.24-10.425-49.491-20.462-53.891-22.305-12.622-5.2861-30.71-12.806-47-19.539-8.25-3.4099-19.861-8.2328-25.801-10.718-5.9407-2.4847-11.026-4.2927-11.301-4.0176-0.275 0.275-2.2549 34.864-4.3997 76.865-2.1449 42.001-4.1995 81.854-4.566 88.563l-0.6663 12.198 14.367-7.5348c7.902-4.1441 19.542-10.263 25.867-13.598z"/>
  <path d="m1361.1 2338.1c2.6304-8.9623 54.344-176.74 58.411-189.51 3.4499-10.83 3.5122-11.377 1.2004-10.548-1.6963 0.6084-40.256 16.48-68.75 28.298-7.7 3.1937-26.15 10.843-41 16.999s-30.6 12.698-35 14.538c-17.985 7.52-32.13 13.268-34.25 13.919-1.2375 0.3797-2.25 1.0202-2.25 1.4233s3.4875 4.5526 7.75 9.2212 15.214 16.796 24.336 26.95c37.735 42.003 66.263 73.592 68.273 75.599 1.1776 1.1757 5.741 6.2319 10.141 11.236s8.2274 9.1047 8.5054 9.1124c0.278 0.01 1.4629-3.2484 2.6332-7.2359z"/>
  <path d="m1123 2337.4c3.73-4.125 8.868-9.75 11.418-12.5s8.1768-9.0066 12.504-13.904c4.3277-4.8969 8.5869-9.6622 9.465-10.589 3.9985-4.2224 19.609-21.48 28.048-31.007 5.1153-5.775 11.606-12.982 14.425-16.016 20.69-22.272 36.152-39.852 35.499-40.36-0.2059-0.1603-5.0994-2.2379-10.874-4.617s-14.55-6.0136-19.5-8.0767-29.925-12.408-55.5-22.989-51.9-21.478-58.5-24.215c-24.909-10.332-38.011-15.533-38.336-15.216-0.1845 0.1801 0.8247 4.0764 2.2429 8.6585 11.055 35.718 34.092 110.59 46.329 150.57 8.1202 26.529 15.042 48.129 15.381 48s3.6691-3.6099 7.399-7.7349z"/>
  <path d="m536.65 2334.3c5.9907-11.248 14.196-26.751 18.235-34.451s11.154-21.2 15.812-30c4.6582-8.8 14.889-28.15 22.736-43 7.8467-14.85 16.178-30.6 18.514-35 5.8045-10.932 13.344-25.21 19.011-36 5.1052-9.7213 28.512-53.965 39.636-74.923 3.7728-7.1076 6.75-12.993 6.6159-13.078-0.1342-0.085-11.719 0.4348-25.744 1.1556-14.025 0.7209-74.325 3.7807-134 6.7996-59.675 3.019-112.55 5.7332-117.5 6.0317-11.42 0.6886-123.98 6.3593-132 6.6501-3.3 0.1197-6.8118 0.4218-7.804 0.6713-1.3456 0.3385 31.947 34.216 131 133.3 73.042 73.067 133.21 132.72 133.7 132.57 0.4927-0.1526 5.7973-9.4807 11.788-20.729z"/>
  <path d="m2214.1 2089.7c-0.3579-0.3578-16.287-1.4465-35.398-2.4193-19.111-0.9729-43.973-2.2563-55.248-2.8522-11.275-0.5958-51.325-2.6442-89-4.552s-86.05-4.3723-107.5-5.4767-57-2.9043-79-3.9998-42.553-2.1353-45.672-2.3106l-5.6725-0.3188 2.0608 4.0582c1.1335 2.232 6.3294 12.158 11.547 22.058s12.193 23.175 15.501 29.5 7.4689 14.2 9.2461 17.5c4.29 7.9662 35.965 67.844 63.479 120 7.8338 14.85 15.929 30.15 17.989 34 3.5254 6.5892 9.5527 17.962 18.018 34 2.0323 3.85 6.0825 11.601 9.0004 17.224l5.3054 10.224 133-132.99c73.149-73.146 132.71-133.29 132.35-133.64z"/>
  <path d="m1943.6 2350.9c-2.1046-3.8554-7.0945-13.31-11.089-21.01-3.9942-7.7-8.5046-16.25-10.023-19-3.6489-6.6081-17.735-33.264-27.48-52-4.2907-8.25-9.3082-17.612-11.15-20.804-1.8418-3.1919-3.3487-5.9903-3.3487-6.2186 0-0.2282-3.6468-7.2916-8.1039-15.696-4.4572-8.4048-10.596-20.006-13.642-25.781s-9.8102-18.6-15.032-28.5c-5.2216-9.9-12.973-24.525-17.225-32.5s-13.265-25.075-20.027-38c-6.7627-12.925-12.335-23.563-12.383-23.639-0.048-0.077-36.762-1.9877-81.587-4.2468-44.825-2.2592-85.1-4.3719-89.5-4.695l-8-0.5875 315.91 316.09 16.503-16.397z"/>
  <path d="m700.96 2216.4 158-158.04-9 0.5802c-4.95 0.3192-31.05 1.6767-58 3.0167-66.663 3.3147-111.98 5.6762-112.08 5.8404-0.047 0.075-3.7107 7.1114-8.1423 15.636s-11.524 22.025-15.762 30c-15.303 28.802-17.416 32.795-27.523 52-5.6436 10.725-18.125 34.35-27.737 52.5-19.297 36.439-21.78 41.14-38.563 73-6.3739 12.1-16.973 32.125-23.554 44.5l-11.965 22.5 8.1646 8.25c4.4906 4.5375 8.1655 8.25 8.1664 8.25 0 0 71.101-71.117 158-158.04z"/>
  <path d="m1921.7 2383.6 7.7-7.7941-315.8-315.79 0.459 5.4469c0.2525 2.9958 1.8348 33.347 3.5162 67.447s3.5889 71.827 4.239 83.838l1.1819 21.838 7 3.704c3.85 2.0371 13.3 7.0176 21 11.068s19.175 10.15 25.5 13.556c6.325 3.4058 17.8 9.4685 25.5 13.473s15.8 8.2911 18 9.5268c2.2 1.2356 9.4 5.0649 16 8.5096 13.316 6.9497 76.585 40.406 86 45.477 3.3 1.7772 11.175 5.9383 17.5 9.2471 11.192 5.8546 39.248 20.64 61.5 32.41 6.05 3.2001 11.45 5.8227 12 5.828 0.55 0.01 4.465-3.4978 8.7-7.7845z"/>
  <path d="m564.01 2390.5c0.5225-0.4754 7.25-4.1407 14.95-8.1451 7.7-4.0043 14.45-7.5982 15-7.9864s8.2-4.4401 17-9.0042 26.575-13.904 39.5-20.756 28.225-14.949 34-17.993 18.6-9.8033 28.5-15.021c9.9-5.2173 20.925-11.062 24.5-12.989 3.575-1.9266 10.55-5.6377 15.5-8.2471 66.415-35.01 97.109-51.312 97.619-51.846 0.3403-0.3564 2.4787-38.448 4.752-84.648 2.2734-46.2 4.3485-86.24 4.6114-88.979l0.478-4.9788-315.92 315.91 7.7276 7.7468c7.4328 7.4513 9.7265 8.8021 11.778 6.936z"/>
  <path d="m1979.2 2418.1c-2.4561-4.5375-8.6193-16.125-13.696-25.75-8.3693-15.867-15.45-29.121-16.75-31.354-0.2735-0.4697-4.0455 2.6734-8.3821 6.9847l-7.8849 7.8386 25.251 25.265c13.888 13.896 25.403 25.265 25.589 25.265s-1.6711-3.7125-4.1272-8.25z"/>
  <path d="m533.78 2368.2c-4.2181-4.243-7.984-7.5201-8.3686-7.2824s-2.0317 3.0277-3.6602 6.1999c-4.973 9.6873-25.348 48.422-28.545 54.268-2.6817 4.9029-0.2263 2.7333 22.617-19.985l25.626-25.485z"/>
  <path d="m529.46 2408.6c15.125-7.9818 27.832-14.805 28.237-15.162 0.4052-0.3575-2.7515-4.1177-7.0148-8.356l-7.7515-7.706-24.985 25.086c-20.749 20.834-24.222 24.71-20.485 22.868 2.475-1.2198 16.875-8.7484 32-16.73z"/>
  <path d="m1981.5 2428.1c0-0.1415-11.369-11.62-25.265-25.508l-25.265-25.251-15.657 15.75 11.344 6.0056c29.016 15.362 35.986 19.072 44.844 23.875 11.03 5.9809 10 5.4528 10 5.1281z"/>
  <path d="m1999.6 2419.6c5.7589-5.9125 15.327-16.15 21.262-22.75 5.9353-6.6 12.014-13.35 13.508-15 17.025-18.802 40.628-48.534 66.286-83.5 18.806-25.629 49.21-73.864 66.814-106 15.012-27.403 34.559-67.442 44.916-92l3.1629-7.5-132.54 132.5c-72.897 72.874-132.54 132.85-132.54 133.29s4.0095 8.3098 8.9099 17.501c12.275 23.024 22.662 42.706 25.84 48.962 1.4666 2.8875 2.9462 5.25 3.2878 5.25s5.333-4.8375 11.092-10.75z"/>
  <path d="m502.46 2399.1c9.075-17.182 17.616-33.389 18.98-36.015l2.4797-4.7746-265.54-265.46 3.1626 7.5c9.2586 21.957 27.554 59.717 41.426 85.5 37.533 69.759 91.992 147.08 143.62 203.91 2.4054 2.6481 5.4409 6.0006 6.7455 7.4499 7.2093 8.009 31.485 33.134 32.01 33.13 0.3396 0 8.0425-14.063 17.118-31.245z"/>
  <path d="m1641.2 2639.6c-0.4059-8.1125-2.3228-45.575-4.2598-83.25-5.0487-98.199-7.9598-155.68-12.002-237-1.9549-39.325-3.7904-73.384-4.0789-75.687-0.5132-4.0956-0.7035-4.2786-8.7228-8.3888-4.509-2.3111-11.798-6.111-16.198-8.4443s-15.65-8.293-25-13.244c-24.294-12.863-48.714-25.802-58-30.731-4.4-2.3354-12.725-6.7259-18.5-9.7566-19.606-10.289-44.462-23.418-55.301-29.209-5.9406-3.174-11.04-5.5324-11.331-5.2409s-0.091 1.356 0.4458 2.3657c0.8457 1.5909 9.3946 22.124 27.202 65.336 2.6065 6.325 11.829 28.6 20.494 49.5 8.6653 20.9 17.889 43.175 20.497 49.5s7.5473 18.25 10.977 26.5c9.9152 23.854 15.945 38.392 19.494 47 1.814 4.4 11.511 27.8 21.549 52 17.238 41.559 23.763 57.33 31.444 76 1.8102 4.4 9.9179 23.975 18.017 43.5s17.879 43.15 21.733 52.5 8.2527 19.925 9.7753 23.5 4.7119 11.338 7.0872 17.25c2.3754 5.9125 4.566 10.75 4.8681 10.75s0.2172-6.6375-0.1888-14.75z"/>
  <path d="m1638.5 2654.1c-0.4777-1.2375-7.0378-17.1-14.578-35.25s-15.638-37.725-17.996-43.5c-4.4256-10.842-14.281-34.628-21.959-53-9.7364-23.297-15.025-36.049-29.03-70-8.0542-19.525-16.239-39.325-18.189-44-1.9499-4.675-5.0461-12.1-6.8805-16.5-1.8345-4.4-12.162-29.375-22.95-55.5-18.654-45.174-21.893-52.987-29.951-72.25-9.4008-22.472-46.094-111.24-48.833-118.13l-3.13-7.879-1.7295 5.379c-1.8482 5.7482-21.375 69.021-24.652 79.879-1.0788 3.575-10.139 32.983-20.134 65.351l-18.172 58.851 2.3006 2.809c2.5683 3.136 46.392 51.634 48.785 53.99 0.8384 0.825 4.8974 5.3228 9.0199 9.995 9.1197 10.336 8.5853 9.7383 13.52 15.118 3.6686 3.9989 14.77 16.28 56.389 62.387 7.9436 8.8 17.85 19.811 22.014 24.468s10.271 11.416 13.571 15.018c8.3179 9.0794 21.264 23.399 33.465 37.014 5.6679 6.325 11.947 13.3 13.953 15.5s7.6686 8.5 12.582 14 9.182 10.225 9.4847 10.5c0.7664 0.6962 18.265 20.052 31.897 35.283 6.2603 6.9944 11.537 12.717 11.725 12.717 0.1885 0-0.048-1.0125-0.5258-2.25z"/>
  <path d="m846.88 2643.4c2.2435-2.475 7.4541-8.3186 11.579-12.986 4.125-4.6671 8.2254-9.1671 9.112-10 0.8866-0.8328 9.6539-10.514 19.483-21.514s20.174-22.475 22.989-25.5 15.413-16.975 27.995-31c22.924-25.552 27.536-30.657 37.011-40.963 2.7997-3.0452 19.645-21.737 37.435-41.537s32.6-36.225 32.912-36.5 6.6303-7.25 14.041-15.5c7.4102-8.25 13.736-15.225 14.056-15.5 0.3206-0.275 4.1391-4.55 8.4855-9.5 4.3465-4.95 8.1452-9.225 8.4418-9.5 0.2965-0.275 4.8141-5.225 10.039-11s9.725-10.725 10-11c3.3732-3.3732 3.4855-2.8324-8.8614-42.697-6.6101-21.342-13.642-44.187-15.626-50.766-4.7579-15.779-32.051-104.13-34.857-112.84l-2.1929-6.8047-4.16 10.305c-2.288 5.6677-9.4055 22.905-15.817 38.305s-13.695 32.95-16.186 39c-8.8821 21.571-14.262 34.573-32.275 78-10.038 24.2-19.735 47.6-21.549 52-3.104 7.5294-6.2589 15.127-18.27 44-5.1335 12.341-9.8757 23.824-26.636 64.5-5.3258 12.925-11.19 27.1-13.031 31.5-5.0188 11.994-12.613 30.253-19.34 46.5-3.3018 7.975-12.621 30.475-20.708 50-13.452 32.475-20.631 49.881-24.954 60.5l-1.6282 4 4.2156-4.5c2.3185-2.475 6.0511-6.525 8.2947-9z"/>
  <path d="m843.63 2628.4c4.4248-10.725 9.3056-22.425 10.846-26 1.5406-3.575 4.3516-10.325 6.2467-15 6.8224-16.83 43.226-104.71 47.223-114 1.3016-3.025 3.7857-9.1 5.52-13.5 1.7344-4.4 3.769-9.35 4.5213-11s10.192-24.375 20.977-50.5 21.206-51.325 23.159-56c6.2187-14.889 9.9902-23.984 18.868-45.5 20.816-50.451 20.508-49.708 33.963-82 9.9946-23.988 19.397-46.647 24.689-59.5 3.2836-7.975 6.2086-15.062 6.5-15.75s0.1876-1.25-0.2305-1.25c-0.4182 0-9.5788 4.6786-20.357 10.397-10.778 5.7182-27.472 14.546-37.097 19.618s-21.1 11.143-25.5 13.491-23.525 12.469-42.5 22.49c-41.41 21.87-55.928 29.55-62.249 32.932-5.7239 3.0623-5.285 0.9071-6.7351 33.072-1.0057 22.31-1.8892 39.853-6.5214 129.5-1.8841 36.462-6.7161 131.73-9.9664 196.5-1.3662 27.225-2.7184 51.975-3.0048 55l-0.5208 5.5 2.0621-4.5c1.1342-2.475 5.6824-13.275 10.107-24z"/>
  <path d="m1670 2650.9c81.762-36.233 166.8-88.757 238-147 27.404-22.418 77.5-67.963 77.5-70.459 0-0.6515-34.154-19.045-62.239-33.518l-9.739-5.0189-132.76 132.8c-110.2 110.23-132 132.47-128.26 130.88 2.475-1.0535 10.35-4.5079 17.5-7.6764z"/>
  <path d="m1844.9 2460.2 66.66-66.65-31.779-16.736c-17.478-9.2048-38.304-20.214-46.279-24.464-12.94-6.8969-26.05-13.828-61-32.25-5.775-3.0441-21.075-11.141-34-17.993s-30.7-16.192-39.5-20.756-16.45-8.616-17-9.0042-7.075-3.8985-14.5-7.8007-20.25-10.673-28.5-15.046l-15-7.9515-0.3062 3.8743c-0.2789 3.5295 0.9044 28.135 6.8254 141.93 1.1018 21.175 4.246 82.825 6.9872 137 2.7411 54.175 5.436 106.31 5.9887 115.86s1.0049 18.052 1.0049 18.896 30.091-28.568 66.868-65.361 96.866-96.888 133.53-133.55z"/>
  <path d="m831.95 2612.3c1.3605-26.076 3.611-69.687 5.0011-96.912s3.8658-75.6 5.5014-107.5c1.6357-31.9 4.0996-80.5 5.4754-108s2.5937-51.8 2.7065-54c0.1354-2.6418-0.1971-3.9154-0.9793-3.7507-0.6514 0.1371-12.323 6.1537-25.936 13.37-32.224 17.082-57.937 30.656-72.252 38.144-6.325 3.3082-14.2 7.4689-17.5 9.2461-3.3 1.7771-21.525 11.442-40.5 21.479-45.005 23.804-47.584 25.166-80.5 42.523-15.4 8.1207-30.25 15.996-33 17.502-2.75 1.5052-7.8633 4.1752-11.363 5.9333l-6.3629 3.1965 133.35 133.36c73.343 73.347 133.47 133.24 133.62 133.09 0.1473-0.1472 1.3808-21.603 2.7413-47.679z"/>
  <path d="m693.2 2527.6-132.76-132.75-6.7434 3.4607c-3.7089 1.9034-12.143 6.34-18.743 9.8591s-19.425 10.238-28.5 14.931-16.95 8.9473-17.5 9.4534c-2.0535 1.89 49.184 48.96 81.5 74.872 69.188 55.476 140.3 100 217 135.89 11.742 5.4929 37.322 16.931 38 16.992 0.2748 0.025-59.241-59.692-132.26-132.7z"/>
  <path d="m1640.3 2661.5c-0.2656-0.7017-36.765-41.241-38.823-43.12-0.3012-0.275-10.214-11.276-22.029-24.446s-26.432-29.371-32.482-36.001c-6.05-6.6303-14.79-16.33-19.423-21.554-6.6986-7.5538-20.898-23.176-27.616-30.384-0.5716-0.6133-4.604-5.1651-8.9608-10.115s-8.1773-9.225-8.4898-9.5c-0.3126-0.275-11.117-12.2-24.01-26.5s-23.682-26.225-23.975-26.5c-0.2936-0.275-4.1318-4.55-8.5292-9.5-4.3975-4.95-8.2315-9.225-8.5201-9.5s-6.5877-7.25-13.998-15.5-13.712-15.225-14.005-15.5c-0.5806-0.5462-29.16-32.289-29.564-32.837-0.2524-0.3419-6.4241 18.95-12.745 39.837-1.9139 6.325-12.928 42.1-24.475 79.5s-27.361 88.7-35.141 114-16.104 52.3-18.498 60c-2.3937 7.7-4.6519 15.012-5.0182 16.25l-0.666 2.25h188.65c108.27 0 188.51-0.3751 188.32-0.8804z"/>
  <path d="m1278.4 2606.1c9.5529-30.938 21.301-69.075 26.108-84.75 7.2448-23.627 21.588-70.222 41.403-134.5 1.8651-6.05 5.3005-17.158 7.6343-24.685l4.2434-13.685-6.9307-7.7618c-3.8118-4.2689-11.656-12.996-17.431-19.393s-26.91-29.821-46.966-52.053-37.91-41.997-39.674-43.922c-1.7643-1.925-4.3302-4.8089-5.7021-6.4088l-2.4943-2.9087-0.3318 2.9087c-0.1824 1.5999-0.2172 102.02-0.077 223.16l0.2545 220.25h22.595z"/>
  <path d="m1235.7 2442.1c0.1399-121.17 0.029-221.44-0.2456-222.82-0.4505-2.2648-2.1553-0.6761-17.23 16.057-9.2017 10.214-17.752 19.696-19 21.071s-9.0197 9.9353-17.27 19.023c-32.454 35.749-65.016 72.134-65.318 72.987-0.1748 0.4935 3.2823 12.506 7.6825 26.694 4.4001 14.188 14.304 46.272 22.008 71.297s15.815 51.35 18.024 58.5c10.449 33.825 34.089 110.55 40.902 132.75l7.5955 24.75h22.597z"/>
  <path d="m1210.1 2660.6c-5.2233-17.044-38.058-123.68-52.423-170.25-10.433-33.825-22.641-73.425-27.128-88-16.331-53.049-16.164-52.562-17.429-50.832-0.639 0.8739-4.9772 5.7566-9.6404 10.85-4.6632 5.094-9.3012 10.211-10.307 11.372-1.0054 1.1604-3.4804 3.9123-5.5 6.1154-2.0195 2.2031-7.0469 7.8281-11.172 12.5s-7.7508 8.7194-8.0573 8.9944c-0.9178 0.8235-47.01 51.771-52.818 58.382-6.0206 6.853-13.683 15.356-18.581 20.618-4.9049 5.2702-51.018 56.404-74.399 82.5-11.334 12.65-21.118 23.45-21.741 24-0.8813 0.7772-42.803 47.277-59.867 66.404-1.6702 1.8722-4.0492 4.4392-5.2867 5.7045s-2.25 2.546-2.25 2.846 84.855 0.5455 188.57 0.5455c179.13 0 188.54-0.088 188.03-1.75z"/>
  <path d="m1249.5 2699.9c5.6135-18.15 10.42-33.562 10.682-34.25 0.363-0.9535-2.1584-1.25-10.631-1.25h-11.107v33.418c0 18.38-0.2912 34.242-0.6472 35.25-0.451 1.2767-0.3223 1.5288 0.4248 0.8318 0.5895-0.55 5.6648-15.85 11.278-34z"/>
  <path d="m1235.5 2699.3c-0.07-18.857-0.2758-34.433-0.4565-34.614s-5.0755-0.2002-10.877-0.043l-10.549 0.2852 10.667 34.659c5.8669 19.063 10.819 34.51 11.005 34.329s0.2805-15.759 0.2101-34.616z"/>
  <path d="m1284 2741.8c95.971-3.1844 205.08-23.874 299.61-56.813 18.802-6.5516 52.951-19.375 53.766-20.191 0.2494-0.2494-83.944-0.4535-187.1-0.4535-177.76 0-187.58 0.091-188.07 1.75-0.5029 1.6984-22.175 71.923-23.32 75.564-0.5384 1.7119 0.2396 1.7831 13.767 1.2608 7.8858-0.3045 21.988-0.8075 31.338-1.1177z"/>
  <path d="m1235.1 2741.6c-1.0632-3.5564-21.744-70.864-22.738-74l-1.0293-3.25-187.67 0.039c-170.16 0.035-187.35 0.1835-184.17 1.585 9.0216 3.9845 42.663 16.326 62.5 22.928 96.252 32.036 197.52 50.143 298.5 53.376 38.698 1.2386 35.205 1.307 34.612-0.6781z"/>
  <path d="m1204 2744.7c-163.46-5.4903-317.64-46.071-462-121.6-74.081-38.758-149.07-90.749-211.49-146.63-29.469-26.38-66.146-63.087-89.03-89.103-4.1121-4.675-7.7202-8.725-8.0178-9-3.6553-3.3767-37.912-45.981-49.049-61-109.14-147.19-177.28-314.41-201.32-494-6.5875-49.224-9.0739-88.324-9.0299-142 0.035-42.874 0.9468-63.44 4.4805-101.08 20.344-216.71 107.42-422.48 248.99-588.42 33.399-39.146 72.401-78.553 111.49-112.65 93.956-81.949 204.75-148.36 320.83-192.31 104.73-39.651 211.12-61.648 327.11-67.631 25.778-1.3296 99.084-0.6995 122.04 1.049 43.97 3.3494 95.051 9.9636 128.5 16.639 89.806 17.922 166.3 42.448 244.5 78.393 99.52 45.745 195.88 110.21 276.45 184.95 26.712 24.778 64.008 63.165 82.15 84.552 1.8662 2.2 3.6506 4.225 3.9655 4.5 2.2534 1.968 34.473 42.485 44.836 56.383 29.003 38.896 51.014 72.62 73.259 112.25 3.6651 6.5286 8.056 14.345 9.7576 17.37 13.14 23.36 37.625 75.175 49.929 105.66 44.013 109.05 67.951 215.16 76.328 338.34 1.6137 23.727 1.6098 101.93-0.01 125-4.6515 66.416-12.581 120.91-26.193 180-13.624 59.146-37.742 131.79-60.923 183.5-23.686 52.839-51.059 104.27-75.848 142.5-3.031 4.675-7.5435 11.65-10.028 15.5-22.335 34.614-55.475 78.227-87.005 114.5-24.179 27.816-66.667 70.881-93.008 94.27-45.429 40.339-95.087 77.816-141.74 106.97-53.059 33.16-106.96 61.032-159.93 82.706-8.25 3.3755-17.025 7.0007-19.5 8.0559-17.58 7.4957-65.28 23.488-98 32.857-99.901 28.604-217.49 42.996-322.5 39.468z"/>
 </g>
</svg>
